<svg width="125" height="108" viewBox="0 0 125 108" fill="none" xmlns="http://www.w3.org/2000/svg">
<path d="M11.9766 59.9062C10.0885 65.1797 9.14453 70.388 9.14453 75.5312C9.14453 82.6276 10.9349 89.0729 14.5156 94.8672C18.0964 100.727 22.5234 104.958 27.7969 107.562C19.7891 107.042 13.2461 104.34 8.16797 99.457C3.02474 94.5091 0.453125 88.5521 0.453125 81.5859C0.453125 73.4479 4.29427 66.2214 11.9766 59.9062ZM35.6094 53.9492C28.3828 59.6784 24.7695 66.3516 24.7695 73.9688C24.7695 80.1536 27.1784 86.013 31.9961 91.5469C36.7487 97.0807 43.0312 99.8477 50.8438 99.8477C56.8984 99.8477 63.1159 96.9505 69.4961 91.1562C67.0221 88.6823 63.9622 85.5247 60.3164 81.6836C56.6706 77.8424 53.0898 74.0013 49.5742 70.1602C46.1237 66.319 43.194 62.9336 40.7852 60.0039C37.6602 56.3581 35.9349 54.3398 35.6094 53.9492ZM75.2578 96.332C66.9896 103.949 58.168 107.758 48.793 107.758C39.2227 107.758 31.3776 104.21 25.2578 97.1133C19.0729 89.9518 15.9805 82.4974 15.9805 74.75C15.9805 63.9427 20.9935 55.0885 31.0195 48.1875C24.8346 39.4635 21.7422 32.5951 21.7422 27.582C21.7422 23.806 22.6536 20.0625 24.4766 16.3516C24.6719 20.9089 26.0716 25.694 28.6758 30.707C30.1081 33.3763 32.1914 36.5339 34.9258 40.1797C37.6602 43.8255 41.599 48.6758 46.7422 54.7305C48.4349 56.6836 51.0391 59.6784 54.5547 63.7148C58.1354 67.6862 61.5859 71.4948 64.9062 75.1406C68.2917 78.7214 70.7005 81.2604 72.1328 82.7578C79.75 90.7656 86.2604 96.5273 91.6641 100.043C97.3932 103.754 102.764 106.13 107.777 107.172C105.499 107.628 103.448 107.855 101.625 107.855C95.7656 107.855 90.9479 106.846 87.1719 104.828C83.2656 102.745 79.2943 99.9128 75.2578 96.332ZM49.1836 34.9062L51.1367 37.25C59.3398 33.0182 63.4414 27.3867 63.4414 20.3555C63.4414 16.4492 62.3021 13.3568 60.0234 11.0781C57.8099 8.86458 54.8802 7.75781 51.2344 7.75781C47.1979 7.75781 44.1706 8.76693 42.1523 10.7852C40.1341 12.8034 39.125 14.8867 39.125 17.0352C39.125 21.0716 42.4779 27.0286 49.1836 34.9062ZM123.988 95.5508L124.965 96.918C120.603 99.7174 116.632 101.117 113.051 101.117C108.298 101.117 102.634 98.8711 96.0586 94.3789C92.6081 91.9701 88.474 88.487 83.6562 83.9297C78.9036 79.3073 72.9466 73.1549 65.7852 65.4727C52.4388 51.0846 43.3242 40.4076 38.4414 33.4414C33.819 26.8659 31.5078 21.3646 31.5078 16.9375C31.5078 12.3802 33.3958 8.50651 37.1719 5.31641C40.9479 2.1263 46.1562 0.53125 52.7969 0.53125C59.3073 0.53125 64.7435 2.22396 69.1055 5.60938C73.5326 9.0599 75.7461 13.4544 75.7461 18.793C75.7461 27.7122 69.2357 35.8503 56.2148 43.207C62.1393 50.2383 71.7747 60.6875 85.1211 74.5547C91.5664 66.9375 94.7891 61.1432 94.7891 57.1719C94.7891 52.4193 90.9805 49.5547 83.3633 48.5781V46.8203C93.7799 47.7318 101.234 48.1875 105.727 48.1875C106.703 48.1875 108.884 48.1224 112.27 47.9922C116.111 47.7969 119.301 47.6992 121.84 47.6992V49.3594C116.046 49.4896 109.6 54.3398 102.504 63.9102L96.2539 72.2109C96.0586 72.4062 95.7005 72.8294 95.1797 73.4805L90.3945 79.6328C102.048 91.0911 111.163 96.8203 117.738 96.8203C119.822 96.8203 121.905 96.3971 123.988 95.5508Z" fill="#B88A3F"/>
</svg>
