<svg id="Layer_1" data-name="Layer 1" xmlns="http://www.w3.org/2000/svg" viewBox="0 0 1080 1080"><path d="M1016,318.42a80,80,0,0,0-7.41-16.37,74.75,74.75,0,0,0-11.09-14.21l-.79-.8-.83-.77-1.66-1.53c-1.12-1-2.33-1.9-3.49-2.86L989,280.47c-.61-.44-1.24-.85-1.86-1.27-1.25-.84-2.47-1.71-3.75-2.51a87.88,87.88,0,0,0-16.26-7.62c-1.43-.46-2.87-.86-4.3-1.29-.72-.2-1.44-.43-2.16-.62l-2.19-.48c-1.47-.29-2.92-.67-4.39-.9l-4.44-.63a89.61,89.61,0,0,0-17.86-.34l-2.23.15c-.74.07-1.48.19-2.21.29l-4.43.61-4.37.9-2.19.47-2.14.6-4.3,1.21-.72.26c-.76.2-1.53.43-2.29.68s-1.68.68-2.51,1l-.78.28-2.05.88L897.47,274l0,.07a234.5,234.5,0,0,0-20.93,11.19c-34.23,20.92-63.21,47.83-90.7,75.61-24.17,25.23-46.1,51.76-67.28,78.71-29.88,37.31-57.26,77-83.41,116.5q-16.68,25.28-32.44,51.07-12.84-7.73-25.09-16.35A413,413,0,0,1,533,554.18l.42-.42c-7.65-6-7.47-4.45-2.55-13.86,15.43-29.14,30.86-58.28,43.93-88.38,13.12-29.54,25.1-59,30.63-90.78,4-22,5.18-43.75.68-65.08-2.06-11.82-5.73-22.37-12.18-32.14C590,257,585,251.66,578.46,248.17c-2.4-1.52-5.93-3-7.42,0-2.09,2.45,1.45,3.88,3.28,5.45,8.51,6.76,11.56,16.79,14.62,26.82,2.36,8.38-1.09,15.49-4.49,23.17-13.25,27.83-30.12,53.09-48.12,78.44-15.48,21.16-31,42.32-47.61,63-11.9,15.75-24.41,31-37,45.63-4.19,4.89-4.19,4.89-10.07,2.49-.57.05-1.75-.43-2.32-.39-28.83-11.46-58.41-17.73-89.2-17.63a148.2,148.2,0,0,0-62.41,11.67c-17.66,7.64-31.57,19.55-42.3,35.78-10.63,17.36-13.81,35.29-7.7,55.35,3.76,11.69,10.83,22,18.42,31.66,13.18,15.52,30,26.77,47.34,36.84,5.93,3,5.93,3,1.18,7.89-6.89,6.81-13.26,13-20.15,19.81a890.5,890.5,0,0,1-91.91,80.12c-23.2,17.19-48.23,32.81-76.54,43-8.33,2.92-17.27,5.32-26.38,5.46-5.72-.13-11.47-.83-16.36-5-1.88-2.14-3.14-3.75-3.36-6.59-.18-2.26,2.66-2.48,3.75-3.14,2.14-1.87,3.71-3.71,3.49-6.54-.79-2.79-2.62-4.36-5.54-5.28a10.16,10.16,0,0,0-12.17,12.35c1.75,7.85,5.59,13.26,13.27,16.66a58.76,58.76,0,0,0,29.92,3.39,150.44,150.44,0,0,0,26.21-7.73c28.74-11.92,55.43-28.24,80.19-47.27a1043.86,1043.86,0,0,0,106.18-94.9c3.71-3.71,6.5-4.5,11.21-2.58,12.3,4.18,24.56,7.8,36.81,11.42a11.45,11.45,0,0,0,6.37,1.21,3.11,3.11,0,0,0,2.71-1.92c.43-1.74-.75-2.22-1.92-2.7l-3.54-1.44c-5.84-1.83-11.12-3.7-17-5.53q-11.38-3.4-24.6-8.37a13,13,0,0,0,2.62-3c24.33-24.7,47.43-50.44,70.54-76.18,17.88-19.64,34.58-39.75,51.84-59.91,3.66-4.27,4.23-4.32,9.55-1.87a224.47,224.47,0,0,1,33.64,21.92c4.23,3.1,4.23,3.1,1.75,7.85-11,20.24-22.54,40.53-33.52,60.77a407.21,407.21,0,0,0-29.86,63.91,34.23,34.23,0,0,0-1.83,7q-2.38,6.95-4.44,14a262.72,262.72,0,0,0-10,58.19,205.65,205.65,0,0,0,.52,30.06q.7,7.58,2.13,15.2A125.53,125.53,0,0,0,422.14,802c.85,2.59,1.76,5.18,2.9,7.84.29.66.56,1.32.87,2l1,2c.28.61.74,1.48,1.19,2.27s.93,1.58,1.44,2.35a38.91,38.91,0,0,0,7.69,8.66,31,31,0,0,0,5.9,3.84,25,25,0,0,0,8.79,2.49,22.22,22.22,0,0,0,11.2-1.93,23.48,23.48,0,0,0,8-6.14c.5-.57.86-1.08,1.28-1.63l.66-.93,1-1.38,1.91-2.78c2.5-3.73,5.22-7.42,7.77-11.18l7.95-11.23L499.7,785l8.08-11.3c2.7-3.78,5.43-7.53,8.07-11.36,5.32-7.63,10.65-15.26,15.9-23l7.83-11.58,7.77-11.65q15.43-23.34,30.16-47.15c7.48-12.09,14.68-24.36,21.73-36.69q4.14-6.87,8.31-13.71c196.2,75.19,331.22-23.24,370.27-79.5,3.33-4.81,6.27-9.88,9.12-15l2-3.92,1-2,.91-2,1.83-4,1.66-4.08A131.46,131.46,0,0,0,1003,474c.11-.73.16-1.46.21-2.2l.15-2.22.16-2.22.07-1.11v-1.11c0-3,.11-5.92-.13-8.88a114.6,114.6,0,0,0-2.29-17.59l-1-4.32-.54-2.15-.66-2.13-1.32-4.24-1.32-3.45c.87-.79,1.71-1.59,2.51-2.43a63,63,0,0,0,10.51-14.85,88.25,88.25,0,0,0,6.41-16.72,132.25,132.25,0,0,0,3.43-17.32,162.53,162.53,0,0,0,1.57-17.5A104.27,104.27,0,0,0,1016,318.42ZM441.85,502.86a13.3,13.3,0,0,1-3.66,4.27C402.66,549.24,365.9,590.29,328,630.87c-3.75,3.14-6.89,6.81-10.07,9.9-2.09,2.45-4.32,3.19-6.72,1.66-24.95-12.9-46.72-28.9-59.51-54.15-14.67-27.38-8.61-52.38,12.45-75.11,13.64-15.32,31.87-23,51.46-27.93,7.8-2.32,16.31-3,24.25-3.59,30.05-2.32,59.49,2.25,88.24,12.57,4.1,1.4,8.24,3.36,12.34,4.76C442.77,499.93,442.86,501.07,441.85,502.86Zm45.63,14.72A212.18,212.18,0,0,0,463,503.5c-4.8-3.05-4.8-3.05-1.71-7.28,13.08-15.27,25.55-31.07,38-46.86,26.94-35.16,54.41-70.94,77.08-109.77,5.05-8.37,9.5-17.27,14.51-26.22a126.54,126.54,0,0,1-2.56,25.87c-5.31,27.22-15.9,52.56-27.67,77.43-16.61,36.08-36.74,70.72-56.32,105.31-.52.61-1,1.79-1.52,2.4-1,2.36-2.66,2.49-4.49.92Zm71.67,155.56q-4,5.68-8,11.29c-5.4,7.5-10.92,14.91-16.43,22.33l-8.34,11.07-8.42,11-16.87,22q-8.42,11.05-17.74,21.45c-3.1,3.46-6.24,6.92-9.63,10.17s-7,6.43-10.55,9.58l-5.4,4.77c-.9.81-1.8,1.59-2.69,2.41l-.15.15-.32-.72c-.16-.38-.31-.81-.47-1.21-.62-1.61-1.18-3.4-1.71-5.21a95.49,95.49,0,0,1-2.46-11.6c-.59-4-1.11-8.11-1.42-12.27a175,175,0,0,1,0-25.29,252.91,252.91,0,0,1,8.76-50.86l1.81-6.28.51-1.69a23.36,23.36,0,0,0,1.18-2.67c16.08-42.89,39.32-81.76,60.15-122.15,1.17-2.88,1.84-4,3.16-3.62a419.2,419.2,0,0,0,49.25,40.94q12.43,8.82,25.5,16.67c-.43.7-.86,1.4-1.28,2.1-9.89,15.57-19.94,31.06-30.48,46.21C564.48,665.6,561.8,669.36,559.15,673.14Zm453.07-319.82a150,150,0,0,1-1.47,16.59,123.24,123.24,0,0,1-3.18,16.21,79.63,79.63,0,0,1-5.76,15.11,54.58,54.58,0,0,1-9.06,12.87l0,0-.29-.62c-.66-1.33-1.4-2.62-2.1-3.93s-1.4-2.62-2.24-3.85L985.7,402c-.82-1.24-1.76-2.4-2.64-3.61a89.15,89.15,0,0,0-5.7-6.9,83.7,83.7,0,0,0-13.5-11.78l-1.84-1.3-.93-.64-1-.61c-1.33-.8-2.67-1.55-4.06-2.22a54,54,0,0,0-8.59-3.34,41.14,41.14,0,0,0-18.68-1.3,26.21,26.21,0,0,0-4.75,1.31,23.6,23.6,0,0,0-4.51,2.22,22.74,22.74,0,0,0-7.17,7.14,24,24,0,0,0-3.49,9.43,30,30,0,0,0,.21,9.74,38.8,38.8,0,0,0,7.81,17.08,48,48,0,0,0,14.06,12,57.72,57.72,0,0,0,35.46,6.75,55.32,55.32,0,0,0,23.16-8.39l.36.94,1.23,3.92.62,2,.49,2,1,4a106.65,106.65,0,0,1,2.15,16.31c.23,2.74.13,5.49.13,8.24v1l-.08,1L995.3,469l-.14,2.05a20.48,20.48,0,0,1-.19,2.06,123.3,123.3,0,0,1-8.09,32.07l-1.56,3.86-1.73,3.79-.86,1.9-1,1.86-1.89,3.72c-2.71,4.87-5.5,9.71-8.68,14.3-6.22,9.29-13.1,18.26-21.24,26-134.22,127.2-330.22,58.2-338.52,51.62C636,572.3,661.67,533,689.36,494.07a1283.49,1283.49,0,0,1,84-105.26c27.33-31.34,57.29-59.67,91.24-84.71a216.86,216.86,0,0,1,36.59-22.3l3.73-1.62,1.87-.81,1.92-.69,2.54-.91a8.52,8.52,0,0,1,1.33-.06c0-.12-.07-.25-.11-.37l.07,0,3.91-1.11,2-.55,2-.42,4-.83,4-.56c.67-.09,1.34-.21,2-.27l2-.14a82.41,82.41,0,0,1,16.17.29l4,.56c1.33.21,2.63.55,4,.82l2,.42c.65.17,1.29.37,1.93.56,1.29.38,2.59.73,3.87,1.15A79.14,79.14,0,0,1,978.89,284c1.13.71,2.22,1.49,3.33,2.23.55.38,1.12.73,1.66,1.13l1.56,1.25c1,.85,2.11,1.64,3.1,2.53l1.48,1.36.73.67.7.72a65.28,65.28,0,0,1,9.83,12.55,71.18,71.18,0,0,1,6.63,14.62A95.41,95.41,0,0,1,1012.22,353.32Zm-25.92,66.3a46.46,46.46,0,0,1-20.94,8A49.35,49.35,0,0,1,935.05,422,39.62,39.62,0,0,1,923.4,412a30.57,30.57,0,0,1-6.19-13.4c-.88-4.79-.28-9.6,2.09-13.25a15.87,15.87,0,0,1,11-7,33,33,0,0,1,14.88,1.1,45.14,45.14,0,0,1,7.27,2.81c1.17.56,2.3,1.2,3.41,1.86l.82.51.83.58,1.65,1.16A75.65,75.65,0,0,1,971.36,397c1.75,2.07,3.63,4,5.19,6.27.79,1.1,1.66,2.15,2.41,3.29l2.2,3.44a38.78,38.78,0,0,1,2.05,3.54c.64,1.2,1.33,2.38,1.94,3.6Z" fill="#fff"/></svg>